HIERARCHY
ROOT Hips
{
	OFFSET 0.000000 0.000000 0.000000
	CHANNELS 6 Xposition Yposition Zposition Zrotation Yrotation Xrotation 
	JOINT LHipJoint
	{
		OFFSET 0.000000 0.000000 0.000000
		CHANNELS 3 Zrotation Yrotation Xrotation
		JOINT LeftUpLeg
		{
			OFFSET 1.363060 -1.794630 0.839290
			CHANNELS 3 Zrotation Yrotation Xrotation
			JOINT LeftLeg
			{
				OFFSET 2.448110 -6.726130 0.000000
				CHANNELS 3 Zrotation Yrotation Xrotation
				JOINT LeftFoot
				{
					OFFSET 2.562200 -7.039590 0.000000
					CHANNELS 3 Zrotation Yrotation Xrotation
					JOINT LeftToeBase
					{
						OFFSET 0.157640 -0.433110 2.322550
						CHANNELS 3 Zrotation Yrotation Xrotation
						End Site
						{
							OFFSET 0.000000 0.000000 0.000000
						}
					}
				}
			}
		}
	}
	JOINT RHipJoint
	{
		OFFSET 0.000000 0.000000 0.000000
		CHANNELS 3 Zrotation Yrotation Xrotation
		JOINT RightUpLeg
		{
			OFFSET -1.305520 -1.794630 0.839290
			CHANNELS 3 Zrotation Yrotation Xrotation
			JOINT RightLeg
			{
				OFFSET -2.542530 -6.985550 0.000000
				CHANNELS 3 Zrotation Yrotation Xrotation
				JOINT RightFoot
				{
					OFFSET -2.568260 -7.056230 0.000000
					CHANNELS 3 Zrotation Yrotation Xrotation
					JOINT RightToeBase
					{
						OFFSET -0.164730 -0.452590 2.363150
						CHANNELS 3 Zrotation Yrotation Xrotation
						End Site
						{
							OFFSET 0.000000 0.000000 0.000000
						}
					}
				}
			}
		}
	}
}
MOTION
Frames: 11
Frame Time: 0.008333
10.322666 16.561890 -1.426717 35.590480 84.452335 32.352313 -9.920846 2.647936 -1.383227 -14.140213 10.391371 -2.556285 -2.377260 1.282663 30.045481 2.240683 9.364472 -22.647433 -3.051300 -0.000000 -23.986800 10.743791 1.606432 -1.358538 -2.756317 -13.631872 -31.469948 0.513010 -2.892473 45.447483 -3.400228 -15.340509 -16.272355 1.838199 0.000000 -29.099600
10.567906 16.669870 -1.407903 33.268076 84.770114 29.891763 -10.077906 2.801133 -1.174593 -13.252214 10.405257 -0.382289 -2.300569 1.153166 27.341517 2.104770 9.266792 -20.564548 -2.599700 0.000000 -26.652200 10.472226 1.508140 -1.337397 -1.162724 -13.993922 -31.271416 0.714176 -2.602125 42.396849 -3.403904 -15.079496 -16.023259 1.729500 -0.000000 -29.871499
10.814179 16.782257 -1.387220 30.178622 85.154252 26.678373 -10.249027 2.968909 -0.952638 -12.273402 10.359421 1.649835 -2.189304 1.056754 24.789088 1.957880 9.185063 -18.155542 -2.095800 0.000000 -30.068800 10.203054 1.380370 -1.297427 0.464719 -14.239471 -30.853333 0.919934 -2.287282 39.122301 -3.404551 -14.813802 -15.746655 1.614400 0.000000 -30.861100
11.060347 16.897927 -1.363669 26.118086 85.602719 22.510897 -10.418292 3.152376 -0.731017 -11.213760 10.282739 3.476229 -2.048690 1.003666 22.495509 1.800793 9.083995 -15.423851 -1.542000 -0.000000 -34.226600 9.952342 1.231113 -1.225929 2.075096 -14.324995 -30.198382 1.124635 -1.946839 35.620395 -3.406992 -14.581061 -15.422670 1.489800 -0.000000 -32.043500
11.305231 17.015729 -1.336172 20.794005 86.115940 17.096520 -10.565546 3.346674 -0.525847 -10.089095 10.206649 5.041562 -1.885815 0.999987 20.565634 1.636628 8.925246 -12.393975 -0.952800 -0.000000 -39.000700 9.738421 1.069057 -1.111004 3.609798 -14.214414 -29.293523 1.321264 -1.581325 31.894535 -3.416900 -14.426870 -15.028533 1.351199 0.000000 -33.352800
11.547745 17.134302 -1.303638 13.729036 86.702887 9.955216 -10.669887 3.537631 -0.353502 -8.923449 10.157273 6.305590 -1.706947 1.045071 19.091832 1.471071 8.673817 -9.111493 -0.356900 -0.000000 -44.142300 9.578553 0.899874 -0.941876 5.004794 -13.883485 -28.137669 1.501362 -1.195075 27.963919 -3.440523 -14.401905 -14.542597 1.192700 0.000000 -34.687200
11.786859 17.252231 -1.265156 3.849294 87.394488 0.007196 -10.719117 3.696158 -0.228212 -7.749468 10.145445 7.249635 -1.512766 1.128996 18.144597 1.311669 8.306861 -5.634956 0.207800 -0.000000 -49.320400 9.479667 0.718369 -0.710122 6.195504 -13.329466 -26.750873 1.656014 -0.800059 23.874416 -3.484336 -14.555770 -13.950862 1.007700 -0.000001 -35.923200
12.021800 17.367889 -1.220241 -12.414529 88.274912 -16.327426 -10.746119 3.763486 -0.160275 -6.612056 10.159728 7.881231 -1.288442 1.227057 17.768645 1.164677 7.818637 -2.022903 0.702900 -0.000000 -54.190700 9.402385 0.487999 -0.411144 7.113862 -12.590487 -25.183819 1.779534 -0.422318 19.707796 -3.554896 -14.925348 -13.255928 0.789500 0.000000 -36.939700
12.252057 17.479663 -1.168942 -51.389496 89.456882 -55.385590 -11.058584 3.697083 -0.132251 -5.669926 10.198394 8.200899 -1.005856 1.307896 17.955384 1.035439 7.245952 1.680779 1.101000 -0.000000 -58.430800 9.061291 0.151698 -0.067914 7.602047 -11.743994 -23.527683 1.861233 -0.074215 15.619367 -3.653300 -15.485335 -12.486911 0.535000 0.000001 -37.647200
12.477327 17.585997 -1.112151 56.947364 89.726935 52.882299 -11.667989 4.063536 -0.078503 -5.127200 10.509074 8.088679 -0.886190 1.544752 18.489547 1.000752 6.808606 5.379356 1.395700 -0.000000 -61.779300 8.597512 0.220957 0.131467 7.719896 -10.626151 -21.780129 1.815501 0.433764 11.899693 -3.704930 -15.953462 -11.615675 0.249500 0.000000 -38.011801
12.697638 17.685585 -1.051446 25.922929 89.946980 21.770687 -11.521420 4.418623 -0.104512 -4.430259 10.811051 7.781025 -0.809569 1.808439 19.491434 1.036485 6.440510 8.973833 1.605800 -0.000000 -64.035600 8.850841 0.420498 0.338289 7.952246 -9.518885 -20.072225 1.752584 0.853637 8.560254 -3.734352 -16.458744 -10.718503 -0.050200 0.000000 -38.067400
